<?xml version="1.0" encoding="UTF-8" standalone="no"?>
<svg xmlns="http://www.w3.org/2000/svg" viewBox="0 0 96.954 96.954">
 <path d="m48.477 0.065c-26.73 0.001-48.476 21.717-48.477 48.412 0.001 26.695 21.747 48.412 48.477 48.412s48.476-21.717 48.477-48.412c-0.001-26.695-21.747-48.411-48.477-48.412zm31.895 22.852c5.528 6.851 8.892 15.508 9.048 24.934-1.84-0.372-9.634-1.83-18.947-1.83-3.004 0-6.166 0.153-9.336 0.542-0.267-0.648-0.537-1.3-0.816-1.954-0.824-1.934-1.707-3.852-2.627-5.739 14.329-5.905 21.247-14.1 22.678-15.953zm-31.895-15.276c10.328 0 19.77 3.839 26.982 10.161-1.143 1.559-7.333 9.294-21.152 14.52-6.395-11.697-13.4-21.376-15.066-23.625 2.97-0.689 6.06-1.056 9.236-1.056zm-17.592 3.974c1.412 1.942 8.422 11.725 14.982 23.329-17.606 4.626-33.242 4.93-37.014 4.93h-0.4c2.709-12.495 11.153-22.878 22.432-28.259zm-23.363 36.925c0-0.336 0.008-0.673 0.018-1.01 0.245 0.004 0.604 0.008 1.074 0.008 5.08 0 22.722-0.423 40.901-5.819 1.103 2.16 2.155 4.35 3.129 6.538-0.455 0.132-0.91 0.266-1.36 0.411-20.467 6.612-31.721 24.112-33.451 26.971-6.412-7.224-10.311-16.713-10.311-27.099zm40.955 40.9c-9.397 0-18.06-3.182-24.979-8.515 1.169-2.294 9.659-17.584 32.092-25.392 0.016-0.005 0.032-0.011 0.047-0.017 5.621 14.646 8.004 26.937 8.661 30.744-4.87 2.047-10.216 3.18-15.821 3.18zm23.194-7.211c-0.549-3.15-2.755-14.67-7.85-28.719 2.858-0.442 5.639-0.617 8.245-0.617 8.559-0.001 15.255 1.873 16.811 2.346-1.85 11.161-8.238 20.812-17.206 26.99z" fill="#d5d5d5"/>
</svg>
