<?xml version="1.0" encoding="UTF-8" standalone="no"?>
<svg xmlns="http://www.w3.org/2000/svg" viewBox="0 0 486.392 486.392">
 <path d="m243.2 0c-134.31 0-243.2 108.89-243.2 243.2s108.89 243.2 243.2 243.2 243.2-108.89 243.2-243.2c-0.01-134.34-108.9-243.2-243.2-243.2zm-60.8 360.99h-60.799v-212.79h60.799v212.79zm-28.52-225.83c-15.747 0-28.484-12.768-28.484-28.515s12.768-28.515 28.484-28.515c15.747 0.03 28.515 12.798 28.515 28.515 0 15.75-12.77 28.52-28.52 28.52zm241.31 225.83h-60.799v-131.57c0-15.413-4.408-26.204-23.347-26.204-31.403 0-37.452 26.204-37.452 26.204v131.57h-60.799v-212.79h60.799v20.337c8.694-6.657 30.399-20.307 60.799-20.307 19.699 0 60.799 11.795 60.799 83.051v129.71z" fill="#d5d5d5"/>
</svg>
