<svg xmlns="http://www.w3.org/2000/svg" viewBox="0 0 364.000000 364.000000">
  <g transform="translate(0.000000,364.000000) scale(0.100000,-0.100000)">
    <path fill="#d5d5d5" d="M1606 3618 c-104 -12 -386 -76 -386 -88 0 -3 208 -23 463 -44 630 -52 759 -73 971 -157 248 -99 398 -255,457 -476 53 -198 11 -513 -101 -748 -81 -170 -248 -362 -410 -472 -75 -50 -217 -126 -277 -147 l-31 -11 113 -320 c190 -540 303,-859 314 -888 l11 -28 57 37 c216 136 430 348 568 562 63 98 157 296 194 409 145 439 110 941 -94 1359 -338 694 -1080 1100,-1849 1012z" />
    <path fill="#d5d5d5" d="M995 3432 c-363 -190 -635 -467 -811 -827 -203 -416 -237 -918 -93 -1358 41 -125 144 -333 220 -447 52 -76,64 -89 71 -74 11 26 728 2757 725 2760 -1 2 -52 -23 -112 -54z" />
    <path fill="#d5d5d5" d="M1646 2633 c-33 -125 -85 -323 -116 -440 -48 -182 -54 -213 -41 -218 9 -3 99 -9 201 -12 168 -5 193 -4 270,16 46 11 109 36 138 54 148 88 252 290 252 488 0 215 -145 301 -565 335 l-80 6 -59 -229z" />
    <path fill="#d5d5d5" d="M1159 781 l-155 -590 66 -30 c139 -64 276 -106 441 -137 95 -18 443 -30 475 -17 21 8 16 25 -175 673 l-197,665 -65 6 c-35 4 -102 10 -149 13 l-86 7 -155 -590z" />
  </g>
</svg>
