<?xml version="1.0" encoding="UTF-8" standalone="no"?>
<svg xmlns="http://www.w3.org/2000/svg" viewBox="0 0 512 512">
 <path d="m256 0c-141.38 0-256 114.62-256 256s114.62 256 256 256 256-114.62 256-256-114.62-256-256-256zm-96 384c-17.673 0-32-14.327-32-32s14.327-32 32-32 32 14.327 32 32-14.33 32-32 32zm88 0c0-66.168-53.832-120-120-120v-48c92.636 0 168 75.364 168 168h-48zm96 0c0-57.695-22.469-111.94-63.266-152.74-40.79-40.79-95.03-63.26-152.73-63.26v-48c70.517 0 136.81 27.461 186.68 77.324 49.86 49.87 77.32 116.16 77.32 186.68h-48z" fill="#d5d5d5"/>
</svg>
